<?xml version="1.0" encoding="UTF-8" standalone="no"?>
<svg width="228px" height="127px" viewBox="0 0 228 127" version="1.1" xmlns="http://www.w3.org/2000/svg" xmlns:xlink="http://www.w3.org/1999/xlink">
    <!-- Generator: Sketch 39.1 (31720) - http://www.bohemiancoding.com/sketch -->
    <title>logo02_svg</title>
    <desc>Created with Sketch.</desc>
    <defs></defs>
    <g id="main" stroke="none" stroke-width="1" fill="none" fill-rule="evenodd">
        <g id="logo02" transform="translate(-110.000000, -78.000000)">
            <g id="logo02_svg" transform="translate(110.000000, 78.000000)">
                <g id="Group-5-Copy-2" fill="#7FF5FC" opacity="0.9">
                    <path d="M49.5853343,71 C50.2767633,71 50.6718656,70.4 50.2767633,69.8 L32.4971613,41 C39.2138999,38.9 47.0171696,34 47.0171696,21.7 C47.0171696,1 23.5085848,1 23.5085848,1 L0.987755664,1 C0.395102266,1 0,1.4 0,1.8 L0,13.3 C3.35836926,18.6 6.81551408,24.2 10.1738833,29.5 L0.987755664,29.5 C0.395102266,29.5 0,29.9 0,30.3 L0,70.2 C0,70.6 0.395102266,71 0.987755664,71 L12.2481702,71 C12.8408236,71 13.2359259,70.6 13.2359259,70.2 L13.2359259,42.5 L18.0759286,42.5 L35.4604283,70.6 C35.5592039,70.8 36.0530817,71 36.3494084,71 L49.5853343,71 Z M15.2114372,14 L23.5085848,14 C25.7804228,14 33.7812437,14 33.7812437,21.7 C33.7812437,27.7 28.5461387,29.3 24.7926672,29.4 L15.2114372,14 Z M94.2734798,13 C94.8661332,13 95.2612354,12.6 95.2612354,12.2 L95.2612354,1.8 C95.2612354,1.4 94.8661332,1 94.2734798,1 L67.9004036,1 C67.3077502,1 66.9126479,1.4 66.9126479,1.8 L66.9126479,12.2 C66.9126479,12.6 67.3077502,13 67.9004036,13 L74.5183665,13 L74.5183665,59 L67.5053013,59 C66.9126479,59 66.5175456,59.4 66.5175456,59.8 L66.5175456,70.2 C66.5175456,70.6 66.9126479,71 67.5053013,71 L94.668582,71 C95.2612354,71 95.6563377,70.6 95.6563377,70.2 L95.6563377,59.8 C95.6563377,59.4 95.2612354,59 94.668582,59 L87.7542924,59 L87.7542924,13 L94.2734798,13 Z M136.195909,72 C147.5551,72 158.222861,64.5 158.222861,51 C158.222861,42.6 154.173062,35.5 146.666119,32 C141.628566,29.6 136.689787,29.6 136.195909,29.6 C131.652233,29.6 127.306108,26.9 127.306108,21.7 C127.306108,15.9 131.355907,13 136.195909,13 C140.838361,13 144.690608,15.4 144.888159,20.5 C144.888159,20.8 145.382037,21.2 145.875915,21.2 L157.037554,21.2 C157.630207,21.2 158.02531,20.8 158.02531,20.5 C157.827758,8.3 148.345304,0 136.195909,0 C124.836719,0 114.070183,8.2 114.070183,21.7 C114.070183,30.1 118.218756,36.4 125.626924,39.9 C130.763253,42.3 135.603256,42.3 136.195909,42.3 C140.245708,42.5 145.08571,45.7 145.08571,51 C145.08571,55.8 140.937137,59 136.195909,59 C131.652233,59 127.50366,56.4 127.306108,51.3 C127.306108,50.9 126.812231,50.5 126.318353,50.5 L115.057938,50.5 C114.465285,50.5 114.070183,50.9 114.070183,51.3 C114.267734,64.5 123.947739,71.7 136.195909,72 L136.195909,72 Z M226.123264,13.7 C226.715918,13.7 227.11102,13.3 227.11102,12.9 L227.11102,1.8 C227.11102,1.4 226.715918,1 226.123264,1 L181.970586,1 C181.377933,1 180.98283,1.4 180.98283,1.8 L180.98283,70.2 C180.98283,70.6 181.377933,71 181.970586,71 L227.012244,71 C227.604898,71 228,70.6 228,70.2 L228,58.8 C228,58.4 227.604898,58 227.012244,58 L194.218756,58 L194.218756,42.2 L221.382037,42.2 C221.875915,42.2 222.271017,41.8 222.271017,41.4 L222.271017,30.3 C222.271017,29.9 221.875915,29.5 221.382037,29.5 L194.218756,29.5 L194.218756,13.7 L226.123264,13.7 Z" id="RISE"></path>
                </g>
                <path d="M21.8205556,126 C21.445492,124.901599 21.0570391,123.81661 20.6551852,122.745 C20.2533313,121.67339 19.8648784,120.575006 19.4898148,119.449815 L7.75574074,119.449815 C7.38067714,120.575006 6.9989217,121.680087 6.61046297,122.765093 C6.22200423,123.850098 5.84024879,124.92839 5.46518519,126 L0.200925926,126 C1.24574597,123.026281 2.23697062,120.280321 3.17462963,117.762037 C4.11228864,115.243753 5.02984119,112.859456 5.92731482,110.609074 C6.82478844,108.358692 7.71555114,106.215504 8.59962963,104.179444 C9.48370813,102.143385 10.3945632,100.134146 11.3322222,98.1516667 L16.1142593,98.1516667 C17.0519183,100.134146 17.9627734,102.143385 18.8468519,104.179444 C19.7309304,106.215504 20.6216931,108.358692 21.5191667,110.609074 C22.4166403,112.859456 23.3408903,115.243753 24.2919445,117.762037 C25.2429986,120.280321 26.2409207,123.026281 27.2857408,126 L21.8205556,126 Z M13.6227778,103.536481 C13.0066019,104.956365 12.3033682,106.684311 11.5130556,108.72037 C10.722743,110.75643 9.89895491,112.966593 9.04166667,115.350926 L18.2038889,115.350926 C17.3466007,112.966593 16.5161151,110.743035 15.7124074,108.680185 C14.9086997,106.617335 14.2121634,104.902785 13.6227778,103.536481 L13.6227778,103.536481 Z M60.0212963,101.286111 C60.4499404,102.732785 60.905368,104.239714 61.3875926,105.806944 C61.8698172,107.374174 62.372127,108.941381 62.8945371,110.508611 C63.4169471,112.075841 63.9393493,113.616258 64.4617593,115.129907 C64.9841693,116.643557 65.4864791,118.070117 65.9687037,119.40963 C66.3705576,117.962956 66.7590105,116.389052 67.1340741,114.68787 C67.5091377,112.986689 67.8841957,111.218559 68.2592593,109.383426 C68.6343229,107.548293 69.0026834,105.679701 69.3643519,103.777593 C69.7260203,101.875484 70.067591,100.000194 70.3890741,98.1516667 L75.6131482,98.1516667 C74.6754892,103.188235 73.6306848,108.030501 72.4787037,112.678611 C71.3267227,117.326721 70.0408096,121.767139 68.6209259,126 L63.7987037,126 C61.7090636,120.588368 59.6864295,114.681205 57.7307408,108.278333 C56.7395012,111.519954 55.7348816,114.600788 54.7168519,117.520926 C53.6988221,120.441064 52.6808076,123.267394 51.6627778,126 L46.8405556,126 C45.3938817,121.767139 44.1012711,117.326721 42.9626852,112.678611 C41.8240993,108.030501 40.7859924,103.188235 39.8483333,98.1516667 L45.2733333,98.1516667 C45.5948164,99.9734042 45.9363871,101.835299 46.2980556,103.737407 C46.659724,105.639516 47.034782,107.508108 47.4232408,109.343241 C47.8116995,111.178373 48.2068499,112.953201 48.6087037,114.667778 C49.0105576,116.382354 49.4124054,117.962956 49.8142593,119.40963 C50.3232742,118.043326 50.8389789,116.603372 51.3613889,115.089722 C51.8837989,113.576073 52.3995036,112.035656 52.9085185,110.468426 C53.4175334,108.901196 53.9064483,107.340687 54.3752778,105.786852 C54.8441073,104.233017 55.2794425,102.732785 55.6812963,101.286111 L60.0212963,101.286111 Z M109.715,126 C109.339936,124.901599 108.951484,123.81661 108.54963,122.745 C108.147776,121.67339 107.759323,120.575006 107.384259,119.449815 L95.6501852,119.449815 C95.2751216,120.575006 94.8933662,121.680087 94.5049074,122.765093 C94.1164487,123.850098 93.7346933,124.92839 93.3596297,126 L88.0953704,126 C89.1401904,123.026281 90.1314151,120.280321 91.0690741,117.762037 C92.0067331,115.243753 92.9242857,112.859456 93.8217593,110.609074 C94.7192329,108.358692 95.6099956,106.215504 96.4940741,104.179444 C97.3781526,102.143385 98.2890077,100.134146 99.2266667,98.1516667 L104.008704,98.1516667 C104.946363,100.134146 105.857218,102.143385 106.741296,104.179444 C107.625375,106.215504 108.516138,108.358692 109.413611,110.609074 C110.311085,112.859456 111.235335,115.243753 112.186389,117.762037 C113.137443,120.280321 114.135365,123.026281 115.180185,126 L109.715,126 Z M101.517222,103.536481 C100.901046,104.956365 100.197813,106.684311 99.4075,108.72037 C98.6171874,110.75643 97.7933994,112.966593 96.9361111,115.350926 L106.098333,115.350926 C105.241045,112.966593 104.41056,110.743035 103.606852,108.680185 C102.803144,106.617335 102.106608,104.902785 101.517222,103.536481 L101.517222,103.536481 Z M138.391852,97.8703704 C142.410391,97.8703704 145.484526,98.6070914 147.614352,100.080556 C149.744177,101.55402 150.809074,103.804368 150.809074,106.831667 C150.809074,110.609093 148.947179,113.167524 145.223333,114.507037 C145.732348,115.123213 146.30833,115.873329 146.951296,116.757407 C147.594263,117.641486 148.250614,118.599223 148.92037,119.630648 C149.590127,120.662073 150.233083,121.720272 150.849259,122.805278 C151.465435,123.890283 152.014627,124.95518 152.496852,126 L146.830741,126 C146.321726,125.035551 145.772534,124.064418 145.183148,123.086574 C144.593763,122.10873 143.997688,121.15769 143.394907,120.233426 C142.792127,119.309162 142.196052,118.438492 141.606667,117.621389 C141.017281,116.804286 140.468089,116.074262 139.959074,115.431296 C139.584011,115.458087 139.262532,115.471481 138.99463,115.471481 L138.231111,115.471481 L135.779815,115.471481 L135.779815,126 L130.716482,126 L130.716482,98.5535185 C131.948833,98.2856159 133.261536,98.1047844 134.65463,98.0110185 C136.047723,97.9172526 137.293451,97.8703704 138.391852,97.8703704 L138.391852,97.8703704 Z M138.753519,102.250556 C137.681908,102.250556 136.690684,102.29074 135.779815,102.371111 L135.779815,111.372593 L137.99,111.372593 C139.222352,111.372593 140.307341,111.305618 141.245,111.171667 C142.182659,111.037715 142.966262,110.796607 143.595833,110.448333 C144.225404,110.10006 144.700924,109.631238 145.022407,109.041852 C145.343891,108.452466 145.50463,107.70235 145.50463,106.791481 C145.50463,105.934193 145.343891,105.210867 145.022407,104.621481 C144.700924,104.032096 144.238799,103.563273 143.636019,103.215 C143.033238,102.866727 142.316609,102.61892 141.486111,102.471574 C140.655613,102.324228 139.744758,102.250556 138.753519,102.250556 L138.753519,102.250556 Z M173.498333,121.820741 C173.793026,121.847531 174.181479,121.867623 174.663704,121.881019 C175.145928,121.894414 175.80228,121.901111 176.632778,121.901111 C180.035141,121.901111 182.573479,121.037138 184.24787,119.309167 C185.922262,117.581195 186.759444,115.163411 186.759444,112.055741 C186.759444,108.89449 185.942354,106.470008 184.308148,104.782222 C182.673942,103.094436 180.142301,102.250556 176.713148,102.250556 C175.212894,102.250556 174.1413,102.29074 173.498333,102.371111 L173.498333,121.820741 Z M192.063889,112.055741 C192.063889,114.466864 191.688831,116.56317 190.938704,118.344722 C190.188577,120.126274 189.12368,121.613111 187.743982,122.805278 C186.364283,123.997444 184.703312,124.881509 182.761019,125.4575 C180.818725,126.033491 178.668839,126.321481 176.311296,126.321481 C175.186106,126.321481 173.913587,126.274599 172.493704,126.180833 C171.07382,126.087067 169.720932,125.892841 168.435,125.598148 L168.435,98.5535185 C169.720932,98.2588257 171.087215,98.0712967 172.533889,97.9909259 C173.980563,97.9105551 175.266476,97.8703704 176.391667,97.8703704 C178.722419,97.8703704 180.852213,98.1449664 182.781111,98.6941667 C184.71001,99.2433669 186.364283,100.100642 187.743982,101.266019 C189.12368,102.431395 190.188577,103.904837 190.938704,105.686389 C191.688831,107.467941 192.063889,109.591037 192.063889,112.055741 L192.063889,112.055741 Z M215.998889,122.222593 C217.820626,122.222593 219.146724,121.914509 219.977222,121.298333 C220.80772,120.682157 221.222963,119.811487 221.222963,118.686296 C221.222963,118.01654 221.082316,117.440558 220.801019,116.958333 C220.519721,116.476109 220.117873,116.040774 219.595463,115.652315 C219.073053,115.263856 218.436794,114.902193 217.686667,114.567315 C216.93654,114.232437 216.079264,113.904261 215.114815,113.582778 C214.150366,113.234504 213.219418,112.852749 212.321945,112.4375 C211.424471,112.022251 210.63417,111.506546 209.951019,110.89037 C209.267867,110.274194 208.718675,109.537473 208.303426,108.680185 C207.888177,107.822897 207.680556,106.791488 207.680556,105.585926 C207.680556,103.067642 208.551226,101.09189 210.292593,99.6586111 C212.033959,98.2253323 214.404862,97.5087037 217.40537,97.5087037 C219.146737,97.5087037 220.693851,97.7029301 222.046759,98.0913889 C223.399667,98.4798476 224.464564,98.9017878 225.241482,99.3572222 L223.674259,103.456111 C222.763391,102.947096 221.765468,102.558643 220.680463,102.290741 C219.595458,102.022838 218.476981,101.888889 217.325,101.888889 C215.958697,101.888889 214.8938,102.170182 214.130278,102.732778 C213.366755,103.295373 212.985,104.085674 212.985,105.103704 C212.985,105.71988 213.112252,106.248979 213.366759,106.691019 C213.621267,107.133058 213.98293,107.528208 214.451759,107.876481 C214.920589,108.224755 215.469781,108.546233 216.099352,108.840926 C216.728923,109.135619 217.418762,109.416912 218.168889,109.684815 C219.481612,110.167039 220.653668,110.655954 221.685093,111.151574 C222.716518,111.647194 223.587188,112.236571 224.29713,112.919722 C225.007072,113.602874 225.549566,114.406569 225.92463,115.330833 C226.299693,116.255097 226.487222,117.373574 226.487222,118.686296 C226.487222,121.20458 225.59646,123.153542 223.814907,124.533241 C222.033355,125.912939 219.428042,126.602778 215.998889,126.602778 C214.846908,126.602778 213.795406,126.529106 212.844352,126.381759 C211.893298,126.234413 211.049417,126.053581 210.312685,125.839259 C209.575953,125.624937 208.939694,125.403921 208.403889,125.176204 C207.868084,124.948487 207.439446,124.740865 207.117963,124.553333 L208.604815,120.414259 C209.328152,120.816113 210.305982,121.217961 211.538333,121.619815 C212.770685,122.021669 214.257522,122.222593 215.998889,122.222593 L215.998889,122.222593 Z" id="Awards" fill="#E8E8EA"></path>
            </g>
        </g>
    </g>
</svg>