<svg xmlns="http://www.w3.org/2000/svg" viewBox="0 0 340 380" fill="none">
  <!-- Tight bunch of citrus, as if fresh off a branch -->

  <!-- === MAIN BRANCH === -->
  <path d="M170 8 C168 28, 160 60, 148 100 C136 140, 128 180, 132 210" stroke="#5a7a3a" stroke-width="3.5" fill="none" stroke-linecap="round"/>
  <path d="M170 8 C172 28, 166 58, 154 96 C142 136, 134 176, 138 206" stroke="#4a6a2e" stroke-width="1.8" fill="none" stroke-linecap="round" opacity="0.4"/>
  <!-- Small sub-branch right -->
  <path d="M158 72 C172 78, 188 90, 198 108" stroke="#5a7a3a" stroke-width="2.5" fill="none" stroke-linecap="round"/>
  <!-- Small sub-branch left -->
  <path d="M152 90 C138 98, 118 108, 105 125" stroke="#5a7a3a" stroke-width="2.2" fill="none" stroke-linecap="round"/>
  <!-- Lower sub-branch -->
  <path d="M140 155 C154 162, 172 175, 182 192" stroke="#5a7a3a" stroke-width="2" fill="none" stroke-linecap="round"/>

  <!-- === TOP LEAF, sprouting up-right from branch === -->
  <path d="M170 12 C186 -2, 214 -8, 232 2 C246 10, 242 30, 224 34 C206 38, 182 26, 170 12Z" fill="#4d7a3e"/>
  <path d="M174 14 C188 4, 210 -2, 226 6 C238 12, 236 28, 220 32 C206 36, 186 26, 174 14Z" fill="#5c8f48" opacity="0.55"/>
  <path d="M172 12 C194 4, 216 2, 228 8" stroke="#3a6230" stroke-width="1.1" fill="none" stroke-linecap="round"/>
  <path d="M200 6 C202 14, 208 22, 216 26" stroke="#3a6230" stroke-width="0.7" fill="none" stroke-linecap="round" opacity="0.4"/>
  <circle cx="208" cy="12" r="3" fill="#4d7a3e" opacity="0.3"/>

  <!-- === TOP-LEFT LEAF === -->
  <path d="M166 18 C148 4, 120 -4, 102 6 C88 14, 92 34, 110 38 C128 42, 154 30, 166 18Z" fill="#4d7a3e"/>
  <path d="M162 20 C146 8, 124 2, 108 10 C96 18, 100 32, 114 36 C130 40, 152 30, 162 20Z" fill="#6aa054" opacity="0.4"/>
  <path d="M164 18 C144 8, 122 4, 106 10" stroke="#3a6230" stroke-width="1" fill="none" stroke-linecap="round"/>

  <!-- === ORANGE 1 — top, biggest, center of bunch === -->
  <path d="M148 68 C172 60, 200 66, 214 88 C228 110, 226 140, 212 158 C198 176, 170 182, 146 176 C122 170, 104 148, 102 124 C100 100, 120 76, 148 68Z" fill="#d4922a"/>
  <path d="M152 72 C174 64, 198 72, 210 92 C222 112, 220 138, 208 154 C194 170, 172 176, 152 170 C132 164, 116 146, 114 124 C112 102, 130 80, 152 72Z" fill="#e8a832" opacity="0.8"/>
  <!-- Light splotch -->
  <path d="M148 98 C158 86, 180 82, 192 92 C202 102, 196 118, 182 124 C168 130, 146 120, 144 108 C142 104, 146 100, 148 98Z" fill="#f0be48" opacity="0.45"/>
  <!-- Dark pooling -->
  <path d="M126 130 C130 122, 140 118, 146 126 C152 134, 146 144, 136 146 C126 148, 124 138, 126 130Z" fill="#b87a1a" opacity="0.4"/>
  <!-- Speckles -->
  <circle cx="168" cy="90" r="2" fill="#c4820a" opacity="0.35"/>
  <circle cx="186" cy="108" r="1.6" fill="#b87a1a" opacity="0.3"/>
  <circle cx="140" cy="112" r="2.2" fill="#c4820a" opacity="0.25"/>
  <circle cx="200" cy="128" r="1.4" fill="#b87a1a" opacity="0.35"/>
  <circle cx="160" cy="155" r="1.8" fill="#c4820a" opacity="0.3"/>
  <circle cx="130" cy="100" r="1.5" fill="#b87a1a" opacity="0.3"/>
  <circle cx="205" cy="112" r="1.8" fill="#c4820a" opacity="0.25"/>
  <!-- Rough outline -->
  <path d="M148 68 C172 60, 200 66, 214 88 C228 110, 226 140, 212 158 C198 176, 170 182, 146 176 C122 170, 104 148, 102 124 C100 100, 120 76, 148 68Z" fill="none" stroke="#a06810" stroke-width="1.2" opacity="0.25"/>

  <!-- === ORANGE 2 — tucked behind left, overlapping === -->
  <path d="M82 118 C100 108, 124 110, 136 128 C148 146, 148 172, 138 188 C128 204, 108 210, 90 206 C72 202, 58 186, 54 166 C50 146, 62 126, 82 118Z" fill="#c88520"/>
  <path d="M86 122 C102 114, 122 116, 132 132 C142 148, 142 170, 134 184 C124 198, 108 204, 94 200 C80 196, 68 182, 64 164 C60 146, 70 130, 86 122Z" fill="#d4922a" opacity="0.75"/>
  <path d="M92 140 C100 132, 116 130, 122 140 C128 150, 122 162, 112 166 C102 170, 90 162, 88 152 C86 148, 90 142, 92 140Z" fill="#e8a832" opacity="0.4"/>
  <!-- Speckles -->
  <circle cx="100" cy="135" r="1.6" fill="#b87a1a" opacity="0.3"/>
  <circle cx="118" cy="155" r="1.3" fill="#c4820a" opacity="0.25"/>
  <circle cx="86" cy="170" r="1.8" fill="#b87a1a" opacity="0.3"/>
  <circle cx="108" cy="185" r="1.4" fill="#c4820a" opacity="0.25"/>
  <path d="M82 118 C100 108, 124 110, 136 128 C148 146, 148 172, 138 188 C128 204, 108 210, 90 206 C72 202, 58 186, 54 166 C50 146, 62 126, 82 118Z" fill="none" stroke="#a06810" stroke-width="1" opacity="0.2"/>

  <!-- === ORANGE 3 — tucked behind right, overlapping === -->
  <path d="M202 108 C222 100, 248 106, 260 126 C272 146, 270 174, 258 190 C246 206, 224 212, 206 206 C188 200, 174 182, 172 160 C170 138, 184 116, 202 108Z" fill="#c88520"/>
  <path d="M206 112 C224 106, 246 112, 256 130 C266 148, 264 172, 254 186 C242 200, 224 206, 210 200 C196 194, 184 178, 182 160 C180 142, 192 120, 206 112Z" fill="#d4922a" opacity="0.7"/>
  <path d="M214 132 C222 124, 238 124, 244 134 C250 144, 244 156, 234 160 C224 164, 212 156, 210 146 C208 140, 212 134, 214 132Z" fill="#e8a832" opacity="0.4"/>
  <!-- Speckles -->
  <circle cx="228" cy="128" r="1.5" fill="#b87a1a" opacity="0.3"/>
  <circle cx="244" cy="150" r="1.8" fill="#c4820a" opacity="0.25"/>
  <circle cx="212" cy="168" r="1.4" fill="#b87a1a" opacity="0.3"/>
  <circle cx="236" cy="182" r="1.6" fill="#c4820a" opacity="0.2"/>
  <path d="M202 108 C222 100, 248 106, 260 126 C272 146, 270 174, 258 190 C246 206, 224 212, 206 206 C188 200, 174 182, 172 160 C170 138, 184 116, 202 108Z" fill="none" stroke="#a06810" stroke-width="1" opacity="0.2"/>

  <!-- === SMALL ORANGE 4 — peeking out bottom === -->
  <path d="M148 195 C164 188, 184 192, 194 208 C204 224, 202 246, 192 258 C182 270, 164 274, 150 268 C136 262, 126 248, 124 232 C122 216, 134 200, 148 195Z" fill="#d4922a"/>
  <path d="M152 198 C166 192, 182 196, 190 210 C198 224, 196 244, 188 254 C178 264, 164 268, 154 262 C144 256, 136 244, 134 230 C132 216, 140 204, 152 198Z" fill="#e8a832" opacity="0.7"/>
  <path d="M158 214 C164 208, 176 208, 180 216 C184 224, 178 232, 170 234 C162 236, 156 228, 156 222 C156 218, 158 216, 158 214Z" fill="#f0be48" opacity="0.4"/>
  <circle cx="168" cy="210" r="1.4" fill="#c4820a" opacity="0.3"/>
  <circle cx="178" cy="230" r="1.2" fill="#b87a1a" opacity="0.25"/>
  <circle cx="148" cy="240" r="1.6" fill="#c4820a" opacity="0.3"/>
  <path d="M148 195 C164 188, 184 192, 194 208 C204 224, 202 246, 192 258 C182 270, 164 274, 150 268 C136 262, 126 248, 124 232 C122 216, 134 200, 148 195Z" fill="none" stroke="#a06810" stroke-width="1" opacity="0.2"/>

  <!-- === LEAF drooping left from branch === -->
  <path d="M108 108 C92 92, 66 82, 50 92 C38 100, 42 118, 58 124 C74 130, 98 120, 108 108Z" fill="#4d7a3e"/>
  <path d="M106 110 C92 96, 70 88, 56 96 C46 104, 48 118, 62 122 C76 126, 98 118, 106 110Z" fill="#5c8f48" opacity="0.5"/>
  <path d="M106 108 C90 96, 72 90, 54 96" stroke="#3a6230" stroke-width="1" fill="none" stroke-linecap="round"/>
  <circle cx="76" cy="98" r="2.5" fill="#4d7a3e" opacity="0.3"/>

  <!-- === LEAF drooping right from sub-branch === -->
  <path d="M198 104 C214 88, 240 80, 258 90 C272 98, 268 118, 250 122 C232 126, 210 116, 198 104Z" fill="#4d7a3e"/>
  <path d="M202 106 C216 92, 238 86, 252 94 C264 100, 260 116, 246 120 C232 124, 212 114, 202 106Z" fill="#6aa054" opacity="0.4"/>
  <path d="M200 104 C218 92, 240 88, 254 94" stroke="#3a6230" stroke-width="0.9" fill="none" stroke-linecap="round"/>

  <!-- === SMALL LEAF at bottom of bunch === -->
  <path d="M136 210 C122 198, 100 194, 88 204 C78 212, 84 228, 100 230 C116 232, 132 220, 136 210Z" fill="#4d7a3e" opacity="0.85"/>
  <path d="M134 212 C122 202, 104 198, 94 206 C86 214, 90 226, 104 228 C116 230, 130 220, 134 212Z" fill="#5c8f48" opacity="0.45"/>
  <path d="M134 210 C118 200, 102 198, 92 206" stroke="#3a6230" stroke-width="0.8" fill="none" stroke-linecap="round"/>

  <!-- === Ink bleed / print artifacts === -->
  <circle cx="60" cy="140" r="2" fill="#4d7a3e" opacity="0.12"/>
  <circle cx="265" cy="165" r="2.5" fill="#d4922a" opacity="0.1"/>
  <circle cx="170" cy="280" r="2" fill="#5c8f48" opacity="0.08"/>
</svg>