<svg xmlns="http://www.w3.org/2000/svg" viewBox="0 0 380 340" fill="none">
  <defs>
    <filter id="grain" x="-20%" y="-20%" width="140%" height="140%">
      <feTurbulence type="fractalNoise" baseFrequency="0.6" numOctaves="3" stitchTiles="stitch" result="noise"/>
      <feColorMatrix type="saturate" values="0" in="noise" result="grayNoise"/>
      <feBlend in="SourceGraphic" in2="grayNoise" mode="multiply"/>
    </filter>
    <filter id="leafGrain" x="-20%" y="-20%" width="140%" height="140%">
      <feTurbulence type="fractalNoise" baseFrequency="0.45" numOctaves="4" stitchTiles="stitch" result="noise"/>
      <feColorMatrix type="saturate" values="0" in="noise" result="grayNoise"/>
      <feBlend in="SourceGraphic" in2="grayNoise" mode="multiply"/>
    </filter>
    <filter id="shadow" x="-10%" y="-5%" width="120%" height="120%">
      <feGaussianBlur in="SourceAlpha" stdDeviation="3" result="blur"/>
      <feOffset dx="2" dy="3" result="off"/>
      <feFlood flood-color="#4a3a18" flood-opacity="0.1" result="c"/>
      <feComposite in="c" in2="off" operator="in" result="s"/>
      <feMerge><feMergeNode in="s"/><feMergeNode in="SourceGraphic"/></feMerge>
    </filter>
  </defs>

  <!-- Oranges sitting on a surface, clustered together -->
  <!-- No branch from above — just short stubby stems with leaves attached -->

  <!-- === BACK-LEFT ORANGE (partially hidden) === -->
  <g filter="url(#shadow)">
  <g filter="url(#grain)">
    <path d="M72 142 C88 126, 118 120, 140 132 C158 142, 164 168, 156 190 C148 210, 124 222, 100 218 C76 214, 58 196, 56 174 C54 156, 60 148, 72 142Z" fill="#9a6a14"/>
    <path d="M76 144 C92 130, 116 124, 136 136 C152 146, 158 168, 150 188 C142 206, 122 216, 102 212 C82 208, 66 192, 64 174 C62 158, 68 148, 76 144Z" fill="#c48820"/>
    <path d="M82 150 C96 138, 116 134, 132 142 C146 152, 150 170, 144 186 C136 200, 120 208, 104 204 C88 200, 76 188, 74 172 C72 160, 76 154, 82 150Z" fill="#d4922a" opacity="0.7"/>
    <path d="M92 156 C104 146, 122 144, 132 154 C140 164, 138 180, 128 188 C118 196, 102 194, 96 184 C90 174, 88 162, 92 156Z" fill="#e8a832" opacity="0.55"/>
    <path d="M100 162 C108 154, 120 156, 124 164 C128 172, 122 182, 114 184 C106 186, 98 178, 98 170Z" fill="#f0c040" opacity="0.35"/>
    <circle cx="108" cy="155" r="1.6" fill="#a06810" opacity="0.35"/>
    <circle cx="130" cy="170" r="1.3" fill="#8a5a0e" opacity="0.3"/>
    <circle cx="90" cy="182" r="1.8" fill="#a06810" opacity="0.25"/>
    <circle cx="118" cy="195" r="1.2" fill="#8a5a0e" opacity="0.3"/>
    <path d="M104 170 C106 167, 110 168, 109 171" stroke="#a06810" stroke-width="0.6" fill="none" opacity="0.3"/>
  </g>
  </g>

  <!-- Stubby stem on back-left orange -->
  <path d="M108 134 C106 128, 108 122, 106 118" stroke="#5a7a3a" stroke-width="2.8" fill="none" stroke-linecap="round"/>
  <path d="M107 132 C105 126, 107 120, 105 116" stroke="#3d5a28" stroke-width="1.2" fill="none" stroke-linecap="round" opacity="0.4"/>

  <!-- Leaf from back-left — long, twisting, curling to the left, pointy tip -->
  <g filter="url(#leafGrain)">
    <!-- This leaf curls and twists — narrow, long, sharp tip, irregular -->
    <path d="M106 120 C94 112, 72 98, 48 88 C32 82, 14 84, 8 94 C2 106, 16 116, 34 118 C52 120, 78 112, 92 108 C86 114, 74 122, 62 128 C50 134, 38 130, 32 122" fill="#3d6b32"/>
    <path d="M104 120 C92 112, 72 100, 50 90 C36 84, 20 88, 14 96 C8 106, 20 114, 36 116 C54 118, 76 112, 90 108" fill="#4d8a3e" opacity="0.6"/>
    <!-- Light streak along the curl -->
    <path d="M90 110 C74 106, 52 98, 36 94 C24 90, 16 94, 16 100" stroke="#6aaa54" stroke-width="2.5" fill="none" stroke-linecap="round" opacity="0.3"/>
    <!-- Dark midrib — wobbly -->
    <path d="M104 120 C88 112, 66 100, 44 90 C28 84, 14 90, 10 98" stroke="#2a4a1e" stroke-width="1.2" fill="none" stroke-linecap="round" opacity="0.6"/>
    <!-- Side veins -->
    <path d="M80 106 C76 112, 70 118, 64 122" stroke="#2a4a1e" stroke-width="0.6" fill="none" stroke-linecap="round" opacity="0.3"/>
    <path d="M58 96 C54 102, 48 108, 42 112" stroke="#2a4a1e" stroke-width="0.5" fill="none" stroke-linecap="round" opacity="0.25"/>
  </g>

  <!-- === BACK-RIGHT ORANGE === -->
  <g filter="url(#shadow)">
  <g filter="url(#grain)">
    <path d="M228 132 C250 120, 282 118, 300 134 C316 148, 320 176, 310 198 C300 218, 274 228, 250 224 C228 220, 212 200, 210 178 C208 158, 216 140, 228 132Z" fill="#9a6a14"/>
    <path d="M232 136 C252 124, 280 124, 296 138 C310 152, 314 176, 306 196 C296 214, 274 222, 254 218 C234 214, 220 198, 218 178 C216 160, 222 144, 232 136Z" fill="#c48820"/>
    <path d="M238 142 C256 132, 278 132, 292 144 C304 156, 306 176, 298 192 C290 206, 272 214, 256 210 C240 206, 228 194, 226 178 C224 162, 230 150, 238 142Z" fill="#d4922a" opacity="0.7"/>
    <path d="M248 152 C262 142, 280 144, 290 156 C298 168, 294 186, 282 194 C270 200, 254 196, 248 184 C242 172, 244 158, 248 152Z" fill="#e8a832" opacity="0.5"/>
    <path d="M256 160 C266 152, 278 156, 282 166 C286 176, 278 184, 268 184 C258 184, 252 174, 254 166Z" fill="#f0c040" opacity="0.3"/>
    <circle cx="264" cy="148" r="1.8" fill="#a06810" opacity="0.35"/>
    <circle cx="286" cy="168" r="1.4" fill="#8a5a0e" opacity="0.3"/>
    <circle cx="244" cy="180" r="2" fill="#a06810" opacity="0.25"/>
    <circle cx="276" cy="200" r="1.3" fill="#8a5a0e" opacity="0.25"/>
    <path d="M260 172 C262 169, 266 170, 265 173" stroke="#a06810" stroke-width="0.6" fill="none" opacity="0.3"/>
    <path d="M278 156 C280 153, 284 154, 283 157" stroke="#a06810" stroke-width="0.5" fill="none" opacity="0.25"/>
  </g>
  </g>

  <!-- Stubby stem on back-right -->
  <path d="M262 126 C264 118, 260 112, 264 106" stroke="#5a7a3a" stroke-width="2.6" fill="none" stroke-linecap="round"/>

  <!-- Leaf from back-right — long, drooping right, twisting, sharp tip -->
  <g filter="url(#leafGrain)">
    <path d="M264 110 C280 102, 308 88, 336 78 C354 72, 372 76, 376 88 C380 102, 364 110, 346 108 C326 106, 300 100, 282 104 C296 108, 316 118, 332 126 C344 132, 352 128, 356 120" fill="#3d6b32"/>
    <path d="M266 112 C282 104, 306 92, 332 82 C348 76, 366 80, 370 90 C374 102, 360 108, 344 106 C326 104, 302 100, 284 104" fill="#4d8a3e" opacity="0.55"/>
    <path d="M284 104 C304 98, 330 88, 350 84 C362 80, 370 86, 370 94" stroke="#6aaa54" stroke-width="2.2" fill="none" stroke-linecap="round" opacity="0.28"/>
    <path d="M266 110 C286 102, 314 90, 340 80 C358 74, 374 80, 376 90" stroke="#2a4a1e" stroke-width="1.1" fill="none" stroke-linecap="round" opacity="0.55"/>
    <path d="M310 92 C316 100, 322 108, 326 114" stroke="#2a4a1e" stroke-width="0.5" fill="none" stroke-linecap="round" opacity="0.25"/>
  </g>

  <!-- === FRONT-CENTER ORANGE (biggest, overlapping both) === -->
  <g filter="url(#shadow)">
  <g filter="url(#grain)">
    <path d="M142 158 C170 146, 206 148, 224 170 C242 192, 240 226, 226 248 C212 268, 182 278, 156 272 C130 266, 110 244, 108 218 C106 192, 120 168, 142 158Z" fill="#9a6a14"/>
    <path d="M146 162 C172 150, 204 154, 220 174 C236 194, 234 224, 222 244 C208 262, 182 270, 160 264 C138 258, 120 240, 118 218 C116 196, 128 172, 146 162Z" fill="#c48820"/>
    <path d="M152 168 C176 158, 202 162, 216 180 C230 198, 228 224, 218 240 C206 256, 184 262, 164 256 C144 250, 128 236, 126 218 C124 200, 136 178, 152 168Z" fill="#d4922a" opacity="0.75"/>
    <!-- Big light face -->
    <path d="M156 180 C174 168, 198 172, 210 190 C220 206, 216 226, 204 236 C192 246, 172 244, 162 232 C152 220, 148 196, 156 180Z" fill="#e8a832" opacity="0.65"/>
    <!-- Bright highlight -->
    <path d="M164 190 C176 180, 194 184, 200 198 C206 212, 198 228, 186 232 C174 236, 162 224, 160 210 C158 200, 162 194, 164 190Z" fill="#f0be48" opacity="0.5"/>
    <!-- Hot spot -->
    <path d="M172 196 C180 190, 192 194, 194 204 C196 214, 188 220, 180 218 C172 216, 168 208, 170 200Z" fill="#f5d060" opacity="0.35"/>
    <ellipse cx="180" cy="200" rx="5" ry="3.5" fill="#fae080" opacity="0.2" transform="rotate(-20 180 200)"/>
    <!-- Shadow crescent -->
    <path d="M200 236 C212 228, 224 232, 226 244 C228 254, 218 262, 206 260 C194 258, 192 246, 200 236Z" fill="#7a4e08" opacity="0.3"/>
    <path d="M160 256 C172 252, 188 256, 194 264 C198 270, 188 274, 176 272 C164 270, 156 264, 160 256Z" fill="#6a4206" opacity="0.2"/>
    <!-- Navel -->
    <ellipse cx="172" cy="268" rx="5" ry="3" fill="#8a5a0e" opacity="0.25"/>
    <ellipse cx="172" cy="268" rx="3" ry="1.8" fill="#6a4206" opacity="0.15"/>
    <!-- Speckles -->
    <circle cx="178" cy="176" r="2.2" fill="#a06810" opacity="0.4"/>
    <circle cx="200" cy="198" r="1.6" fill="#8a5a0e" opacity="0.3"/>
    <circle cx="148" cy="206" r="2.4" fill="#a06810" opacity="0.2"/>
    <circle cx="216" cy="218" r="1.5" fill="#7a4e08" opacity="0.3"/>
    <circle cx="168" cy="248" r="1.8" fill="#a06810" opacity="0.25"/>
    <circle cx="136" cy="192" r="1.4" fill="#8a5a0e" opacity="0.3"/>
    <circle cx="220" cy="200" r="1.6" fill="#a06810" opacity="0.2"/>
    <circle cx="186" cy="166" r="1.2" fill="#c4820a" opacity="0.3"/>
    <circle cx="152" cy="240" r="1.5" fill="#7a4e08" opacity="0.25"/>
    <!-- Skin texture marks -->
    <path d="M174 208 C176 205, 180 206, 179 209" stroke="#a06810" stroke-width="0.7" fill="none" opacity="0.3"/>
    <path d="M192 220 C194 217, 198 218, 197 221" stroke="#a06810" stroke-width="0.6" fill="none" opacity="0.25"/>
    <path d="M154 222 C156 219, 160 220, 159 223" stroke="#a06810" stroke-width="0.6" fill="none" opacity="0.25"/>
    <path d="M206 192 C208 189, 212 190, 211 193" stroke="#a06810" stroke-width="0.5" fill="none" opacity="0.2"/>
    <path d="M142 234 C144 231, 148 232, 147 235" stroke="#a06810" stroke-width="0.6" fill="none" opacity="0.2"/>
    <!-- Rough outline -->
    <path d="M142 158 C170 146, 206 148, 224 170 C242 192, 240 226, 226 248 C212 268, 182 278, 156 272 C130 266, 110 244, 108 218 C106 192, 120 168, 142 158Z" fill="none" stroke="#7a4e08" stroke-width="1.3" opacity="0.18"/>
  </g>
  </g>

  <!-- Short stubby stem on front orange -->
  <path d="M170 158 C172 150, 168 144, 172 138" stroke="#5a7a3a" stroke-width="3" fill="none" stroke-linecap="round"/>
  <path d="M169 156 C171 148, 167 142, 171 136" stroke="#3d5a28" stroke-width="1.4" fill="none" stroke-linecap="round" opacity="0.35"/>

  <!-- === LEAF from front orange — long, twisting down-left, sharp tip, curling === -->
  <g filter="url(#leafGrain)">
    <!-- Main shape — long, narrow, pointy, with a twist/fold -->
    <path d="M170 140 C156 132, 130 118, 100 108 C78 100, 54 98, 42 108 C32 118, 40 132, 56 136 C72 140, 96 132, 116 126 L108 134 C92 142, 72 148, 56 150 C44 152, 36 146, 34 136" fill="#2e5422"/>
    <!-- Lighter inner face -->
    <path d="M168 140 C154 132, 132 120, 104 110 C82 102, 60 102, 48 110 C38 118, 44 130, 58 134 C74 138, 94 132, 114 126" fill="#3d6b32" opacity="0.8"/>
    <!-- Light catching the fold -->
    <path d="M114 126 C98 122, 76 114, 58 110 C46 106, 42 112, 44 120 C46 128, 56 132, 66 132" fill="#5c8f48" opacity="0.45"/>
    <!-- Highlight streak -->
    <path d="M130 122 C112 116, 88 108, 66 106 C52 104, 44 110, 46 118" stroke="#7ab868" stroke-width="2.8" fill="none" stroke-linecap="round" opacity="0.25"/>
    <!-- Dark midrib — wobbly, hand-drawn feel -->
    <path d="M168 140 C150 132, 124 118, 96 108 C74 100, 50 100, 40 110" stroke="#1e3a16" stroke-width="1.4" fill="none" stroke-linecap="round" opacity="0.55"/>
    <!-- Side veins -->
    <path d="M140 128 C134 134, 126 140, 118 144" stroke="#1e3a16" stroke-width="0.6" fill="none" stroke-linecap="round" opacity="0.25"/>
    <path d="M112 114 C106 120, 98 126, 90 130" stroke="#1e3a16" stroke-width="0.5" fill="none" stroke-linecap="round" opacity="0.2"/>
    <path d="M80 106 C76 112, 68 118, 60 122" stroke="#1e3a16" stroke-width="0.5" fill="none" stroke-linecap="round" opacity="0.2"/>
  </g>

  <!-- === LEAF from front orange — going up-right, different shape, narrower === -->
  <g filter="url(#leafGrain)">
    <path d="M172 140 C184 128, 204 110, 228 96 C244 86, 260 82, 268 88 C276 96, 268 108, 252 114 C236 120, 212 118, 194 122 L204 128 C220 132, 240 138, 254 142 C264 146, 268 140, 266 132" fill="#2e5422"/>
    <path d="M174 140 C186 128, 206 112, 226 100 C242 90, 256 86, 264 92 C270 100, 264 108, 250 112 C234 118, 214 118, 196 122" fill="#3d6b32" opacity="0.75"/>
    <path d="M196 122 C214 116, 238 106, 254 100 C262 96, 266 98, 264 104 C262 110, 252 114, 242 114" fill="#5c8f48" opacity="0.4"/>
    <path d="M210 114 C228 106, 248 98, 258 96 C264 94, 266 98, 264 106" stroke="#7ab868" stroke-width="2.2" fill="none" stroke-linecap="round" opacity="0.22"/>
    <path d="M174 140 C190 128, 214 112, 236 100 C254 90, 266 86, 270 92" stroke="#1e3a16" stroke-width="1.2" fill="none" stroke-linecap="round" opacity="0.5"/>
    <path d="M218 108 C224 116, 232 124, 238 130" stroke="#1e3a16" stroke-width="0.5" fill="none" stroke-linecap="round" opacity="0.22"/>
    <path d="M242 98 C244 106, 248 114, 252 120" stroke="#1e3a16" stroke-width="0.5" fill="none" stroke-linecap="round" opacity="0.2"/>
  </g>

  <!-- === LOOSE LEAF — bottom right, fallen, curled, twisting === -->
  <g filter="url(#leafGrain)">
    <path d="M280 260 C296 248, 322 236, 348 234 C364 232, 374 240, 370 252 C366 264, 348 268, 332 264 C316 260, 300 254, 290 258 C302 264, 318 276, 330 286 C340 294, 344 290, 342 280" fill="#2e5422"/>
    <path d="M282 262 C298 250, 320 240, 344 238 C358 236, 368 242, 366 252 C362 262, 346 266, 332 262 C318 258, 302 254, 292 258" fill="#3d6b32" opacity="0.7"/>
    <path d="M310 248 C328 242, 350 240, 360 246 C366 250, 362 258, 350 260 C338 262, 320 256, 310 248Z" fill="#5c8f48" opacity="0.4"/>
    <path d="M320 244 C338 240, 354 242, 360 248" stroke="#7ab868" stroke-width="2" fill="none" stroke-linecap="round" opacity="0.22"/>
    <path d="M282 260 C302 250, 328 238, 352 236 C368 234, 374 242, 370 254" stroke="#1e3a16" stroke-width="1" fill="none" stroke-linecap="round" opacity="0.45"/>
    <path d="M330 242 C332 250, 336 258, 338 264" stroke="#1e3a16" stroke-width="0.5" fill="none" stroke-linecap="round" opacity="0.2"/>
  </g>

  <!-- === LOOSE LEAF — bottom left, small, curled tight === -->
  <g filter="url(#leafGrain)">
    <path d="M30 240 C22 228, 8 210, 4 192 C2 180, 10 174, 20 180 C30 186, 34 202, 32 218 C30 228, 28 234, 30 240Z" fill="#3d6b32" transform="rotate(25 20 210)"/>
    <path d="M28 236 C22 226, 10 210, 8 196 C6 184, 14 180, 22 184 C30 190, 32 204, 30 218" fill="#4d8a3e" opacity="0.6" transform="rotate(25 20 210)"/>
    <path d="M20 200 C16 192, 12 184, 14 180 C16 176, 22 180, 24 188" fill="#5c8f48" opacity="0.35" transform="rotate(25 20 210)"/>
    <path d="M28 238 C22 224, 10 206, 6 192 C4 182, 12 176, 20 182" stroke="#1e3a16" stroke-width="0.9" fill="none" stroke-linecap="round" opacity="0.45" transform="rotate(25 20 210)"/>
  </g>

  <!-- === Ink bleed artifacts === -->
  <circle cx="60" cy="160" r="2" fill="#3d6b32" opacity="0.08"/>
  <circle cx="300" cy="200" r="2.5" fill="#a06810" opacity="0.06"/>
  <circle cx="180" cy="290" r="1.8" fill="#3d6b32" opacity="0.05"/>
  <circle cx="340" cy="270" r="1.5" fill="#6b5a38" opacity="0.06"/>
</svg>